<?xml version="1.0" standalone="no"?>
<!DOCTYPE svg PUBLIC "-//W3C//DTD SVG 20010904//EN"
 "http://www.w3.org/TR/2001/REC-SVG-20010904/DTD/svg10.dtd">
<svg version="1.0" xmlns="http://www.w3.org/2000/svg"
 width="500.000000pt" height="500.000000pt" viewBox="0 0 500.000000 500.000000"
 preserveAspectRatio="xMidYMid meet">
<metadata>
Created by potrace 1.14, written by Peter Selinger 2001-2017
</metadata>
<g transform="translate(0.000000,500.000000) scale(0.100000,-0.100000)"
fill="#000000" stroke="none">
<path d="M3750 4394 c0 -4 16 -21 35 -40 19 -18 35 -37 35 -42 0 -5 6 -15 14
-21 7 -6 24 -46 36 -89 32 -106 32 -282 0 -400 l-9 -37 -88 -1 c-126 -1 -227
-13 -320 -38 l-51 -14 -51 77 c-93 140 -197 231 -346 302 -55 26 -120 53 -145
59 -74 19 -133 31 -165 36 -64 9 -324 11 -400 3 -172 -20 -386 -85 -574 -176
-95 -46 -298 -177 -357 -230 -205 -183 -349 -345 -424 -479 -10 -16 -39 -66
-64 -111 -177 -305 -234 -680 -160 -1063 16 -84 69 -240 105 -312 15 -29 16
-38 6 -47 -8 -6 -31 -45 -53 -88 -36 -72 -39 -83 -39 -163 0 -100 18 -141 87
-206 38 -36 90 -74 101 -74 3 0 6 35 9 78 3 61 11 89 32 129 16 29 34 54 41
57 8 3 25 -13 41 -37 48 -73 131 -158 244 -249 41 -34 75 -66 75 -71 0 -19
-135 -78 -191 -84 -30 -3 -57 -10 -60 -14 -8 -13 -68 -11 -83 3 -9 8 -11 8 -8
2 9 -16 -18 -25 -32 -11 -6 6 -11 7 -11 2 0 -6 -5 -3 -10 5 -5 8 -10 10 -10 4
0 -5 7 -19 15 -30 15 -19 15 -19 9 1 -6 16 -4 18 6 8 7 -6 18 -9 25 -7 7 3 15
-2 18 -10 4 -9 2 -16 -3 -16 -6 0 -10 5 -10 11 0 5 -5 7 -11 4 -20 -13 -65
-13 -91 1 -15 8 -29 10 -33 5 -3 -5 5 -11 17 -13 12 -2 23 -10 25 -18 4 -13 3
-13 -7 0 -10 12 -11 11 -7 -7 3 -13 1 -26 -4 -29 -5 -3 -9 -2 -8 3 1 4 1 17 0
27 -1 19 -1 19 -14 1 -8 -10 -18 -15 -24 -12 -10 6 -66 -26 -58 -35 3 -2 -2
-5 -10 -5 -8 0 -12 4 -9 9 3 4 -7 8 -21 8 -14 0 -24 4 -21 8 2 4 0 14 -6 22
-8 12 -9 12 -4 -2 3 -10 -2 -25 -11 -33 -8 -9 -13 -19 -9 -22 3 -4 6 -3 6 2 0
4 8 1 17 -6 15 -12 16 -12 10 4 -4 11 -1 17 9 17 8 0 12 -5 9 -11 -4 -6 3 -13
16 -16 22 -6 22 -7 3 -14 -10 -4 38 -8 109 -8 70 -1 127 -4 127 -9 0 -4 -21
-6 -47 -3 -27 2 -45 0 -41 -4 8 -8 72 -12 273 -16 119 -2 129 -4 70 -9 -75 -7
-67 -10 35 -16 35 -1 66 -8 68 -13 2 -7 64 -12 170 -13 140 -1 153 -3 82 -8
-79 -6 -75 -7 65 -10 131 -3 141 -4 75 -10 -41 -4 -63 -7 -48 -8 14 -1 28 -7
30 -14 3 -9 104 -11 406 -10 221 0 406 3 411 7 5 3 12 2 15 -3 3 -4 30 -7 60
-6 31 1 54 -2 51 -6 -2 -4 8 -5 23 -3 23 3 99 6 335 12 16 1 26 5 23 9 -3 5 1
9 9 9 8 0 12 -4 9 -9 -3 -4 4 -8 15 -8 12 0 21 6 21 13 0 7 5 5 11 -5 5 -9 16
-15 24 -12 8 4 12 11 8 18 -4 6 1 5 10 -3 14 -11 20 -11 34 0 9 8 18 13 20 12
1 -2 17 -3 34 -3 28 0 30 2 18 17 -13 14 -12 15 6 7 11 -5 31 -8 45 -7 14 2
45 5 70 6 25 1 51 6 59 11 10 6 12 5 7 -2 -4 -7 -2 -12 3 -12 6 0 11 4 11 9 0
4 39 9 87 10 50 1 94 7 102 14 9 7 12 7 8 1 -3 -6 0 -11 8 -11 8 0 12 4 9 9
-3 4 -2 8 3 9 4 0 37 2 72 4 97 6 86 15 -19 15 -142 0 -103 8 57 12 77 2 139
7 136 11 -3 5 -20 6 -39 4 -19 -3 -36 -2 -39 2 -5 9 -11 9 157 11 94 1 138 5
142 13 3 9 5 9 5 0 1 -7 9 -13 19 -13 13 0 14 2 4 9 -10 6 -4 10 20 16 18 4
37 7 41 6 5 -1 6 3 3 8 -4 5 2 12 11 14 15 4 15 5 -2 6 -14 1 -16 4 -7 9 8 6
-4 9 -30 9 -31 1 -36 -1 -18 -6 14 -3 26 -12 27 -19 4 -15 -14 -16 -19 -1 -3
8 -31 12 -78 12 -58 -1 -67 1 -40 7 23 5 -17 8 -115 10 -82 1 -136 5 -120 9
17 4 51 6 78 4 26 -1 47 3 47 8 0 6 -15 9 -36 6 -25 -4 -37 -1 -41 10 -5 12
-7 12 -14 1 -7 -10 -9 -10 -9 0 0 8 -16 12 -47 12 -34 0 -44 3 -33 10 12 7 10
9 -7 7 -12 0 -19 -5 -17 -9 3 -4 -6 -8 -20 -8 -14 0 -26 5 -26 11 0 8 -4 8
-14 0 -7 -6 -27 -10 -43 -9 -24 2 -29 6 -25 20 2 10 -1 18 -7 18 -7 0 -9 -4
-6 -10 4 -6 -8 -10 -27 -10 -19 0 -40 -6 -47 -13 -11 -10 -12 -9 -6 1 6 11 3
12 -13 3 -11 -6 -28 -11 -38 -11 -14 0 -14 3 -4 15 7 9 10 18 6 22 -3 3 -6 2
-6 -3 0 -15 -59 -11 -65 4 -3 7 26 32 73 61 42 27 82 54 89 60 7 6 15 11 18
11 13 0 152 117 223 189 100 100 190 221 255 340 28 53 52 98 53 101 0 3 10
27 22 53 32 70 77 228 97 337 40 216 21 452 -46 550 -54 79 -152 132 -271 146
-47 6 -50 5 -43 -12 40 -95 49 -258 21 -403 -20 -105 -78 -278 -112 -336 -35
-61 -141 -163 -227 -221 -82 -56 -285 -163 -307 -164 -8 0 -28 -7 -44 -15
-103 -54 -380 -134 -555 -160 -107 -16 -307 -23 -318 -11 -9 9 18 27 29 20 4
-3 47 2 95 11 130 24 231 66 415 169 78 44 212 165 308 277 30 35 60 69 65 75
33 37 66 77 115 139 30 39 73 90 96 115 48 51 118 140 183 230 152 211 302
531 362 771 12 46 23 86 25 88 8 9 76 -78 102 -129 22 -45 27 -68 27 -128 0
-82 4 -88 72 -95 141 -16 204 143 122 307 -43 87 -129 174 -223 225 l-70 38
-1 54 c-5 174 -63 359 -136 438 -10 11 -19 24 -19 29 0 12 -150 156 -177 171
-13 6 -23 9 -23 5z m-960 -638 c166 -40 280 -104 280 -158 0 -32 -4 -34 -78
-43 -85 -9 -133 -22 -218 -59 -103 -44 -144 -65 -173 -88 -22 -17 -26 -17 -40
-4 -8 9 -13 17 -10 18 2 2 30 16 62 32 56 29 74 52 19 26 -15 -7 -36 -16 -47
-21 -196 -81 -331 -174 -501 -344 -172 -172 -262 -314 -309 -490 l-22 -80
-122 -68 c-67 -38 -124 -67 -127 -65 -2 3 -10 38 -18 79 -14 70 -15 279 -2
336 11 50 80 241 100 278 34 63 122 188 171 241 5 6 22 24 36 40 24 28 61 60
174 153 43 36 181 110 285 154 54 23 169 56 230 65 59 9 269 8 310 -2z m1037
-105 c21 -2 -110 -332 -166 -421 -5 -8 -22 -39 -36 -68 -33 -65 -181 -288
-238 -357 -114 -138 -221 -253 -334 -355 -125 -114 -317 -230 -431 -260 -50
-13 -163 -16 -213 -5 -56 12 -123 51 -162 94 -43 48 -60 80 -76 146 l-13 50
34 28 c53 45 392 201 463 213 6 1 46 13 90 28 44 14 85 26 92 26 7 0 13 5 13
10 0 6 -2 10 -4 10 -4 0 -208 -52 -294 -76 -69 -18 -85 -12 -74 28 7 28 64 53
198 86 245 61 396 115 496 179 21 12 42 23 47 23 15 0 146 132 176 177 43 66
65 162 61 269 -1 50 -6 96 -10 102 -25 40 221 87 381 73z m-788 -197 c2 -2
-16 -42 -40 -90 -55 -109 -208 -291 -289 -342 -14 -9 -47 -33 -75 -53 -60 -45
-196 -114 -329 -168 l-98 -39 6 46 c20 151 132 344 260 449 154 125 249 167
471 206 21 3 87 -3 94 -9z m-1199 -1304 c37 -46 127 -118 185 -147 51 -26 153
-56 245 -73 45 -8 277 -6 316 3 206 49 246 62 352 114 64 31 121 59 126 61 5
3 -7 -23 -25 -56 -102 -180 -320 -328 -564 -383 -27 -6 -59 -13 -70 -15 -48
-12 -247 -10 -320 2 -102 18 -247 68 -300 104 -58 40 -171 151 -179 176 -4 15
6 36 40 80 66 85 145 174 154 174 5 0 23 -18 40 -40z m-374 -455 c39 -33 81
-68 93 -77 19 -16 29 -38 16 -38 -15 0 -137 94 -193 149 -90 89 -105 108 -96
122 5 8 23 -5 58 -42 28 -30 83 -81 122 -114z m-376 -675 c0 -9 -48 -1 -55 9
-2 4 9 5 26 3 16 -2 29 -8 29 -12z m2753 -17 c-7 -2 -21 -2 -30 0 -10 3 -4 5
12 5 17 0 24 -2 18 -5z m44 1 c-3 -3 -12 -4 -19 -1 -8 3 -5 6 6 6 11 1 17 -2
13 -5z m-2913 -23 c4 -5 -3 -7 -14 -4 -23 6 -26 13 -6 13 8 0 17 -4 20 -9z
m1388 -14 c9 -1 14 -5 12 -9 -3 -4 0 -8 5 -8 6 0 11 -7 11 -15 0 -8 -5 -15
-11 -15 -5 0 -7 -4 -4 -10 3 -5 0 -10 -7 -10 -10 0 -10 -2 -1 -8 17 -11 0 -34
-23 -30 -13 2 -19 -3 -19 -16 0 -11 8 -20 18 -22 9 -1 15 2 12 6 -9 14 35 34
47 22 6 -6 17 -8 26 -5 11 5 13 2 7 -6 -6 -10 -3 -11 14 -2 11 7 21 8 21 3 0
-4 80 -8 179 -8 155 1 178 -1 173 -14 -5 -13 -3 -13 11 -1 14 11 20 11 34 0 9
-8 14 -9 10 -3 -7 12 21 29 31 19 3 -3 0 -5 -6 -5 -7 0 -12 -4 -12 -9 0 -4 12
-6 28 -4 15 2 36 4 47 3 11 -1 39 -2 62 -3 23 0 40 -4 37 -8 -3 -5 -11 -6 -18
-3 -8 3 -16 1 -19 -3 -4 -5 40 -9 99 -8 57 0 104 -3 104 -7 0 -4 -53 -8 -117
-9 -65 0 -183 -1 -263 -2 -89 0 -148 -5 -152 -11 -5 -7 -8 -7 -8 -1 0 6 -68
10 -185 9 -178 0 -184 0 -168 18 18 20 5 25 -17 6 -12 -11 -12 -10 -3 2 15 21
-5 48 -32 43 -11 -2 -27 -5 -35 -5 -8 0 -21 -6 -29 -12 -11 -8 -13 -8 -7 2 7
13 -1 16 -42 14 -20 -1 -22 3 -18 31 2 18 5 32 6 32 1 0 3 8 5 18 8 43 46 57
140 49 22 -2 48 -4 57 -5z m1455 7 c-3 -3 -12 -4 -19 -1 -8 3 -5 6 6 6 11 1
17 -2 13 -5z m236 -21 c-13 -2 -33 -2 -45 0 -13 2 -3 4 22 4 25 0 35 -2 23 -4z
m-3090 -50 c-13 -2 -35 -2 -50 0 -16 2 -5 4 22 4 28 0 40 -2 28 -4z m2940 0
c-18 -2 -48 -2 -65 0 -18 2 -4 4 32 4 36 0 50 -2 33 -4z m-2828 -23 c3 -5 1
-10 -4 -10 -6 0 -11 5 -11 10 0 6 2 10 4 10 3 0 8 -4 11 -10z m2292 -16 c-3
-3 -12 -4 -19 -1 -8 3 -5 6 6 6 11 1 17 -2 13 -5z m40 0 c-3 -3 -12 -4 -19 -1
-8 3 -5 6 6 6 11 1 17 -2 13 -5z m46 -1 c-7 -2 -19 -2 -25 0 -7 3 -2 5 12 5
14 0 19 -2 13 -5z m-1108 -12 c3 -5 2 -12 -3 -15 -5 -3 -9 1 -9 9 0 17 3 19
12 6z m-324 -11 c23 4 42 3 45 -2 4 -6 10 -6 17 1 15 15 30 14 21 -1 -5 -9 -2
-9 9 1 13 11 20 11 32 1 8 -6 18 -9 23 -6 5 3 8 -5 7 -17 -1 -15 -9 -22 -22
-23 -11 -1 -25 -4 -32 -8 -6 -4 -11 -1 -11 6 0 10 -2 10 -8 1 -7 -12 -22 -13
-114 -13 -73 1 -86 3 -81 16 5 14 -39 13 -49 -1 -5 -6 -8 -6 -8 1 0 8 -13 10
-35 7 -22 -3 -35 0 -35 7 0 6 5 8 10 5 6 -4 17 -1 25 5 11 10 15 10 15 1 0 -7
5 -9 10 -6 6 4 7 12 4 18 -5 8 -3 8 7 0 7 -7 20 -13 29 -13 13 0 13 1 0 10 -8
5 -10 10 -4 10 5 0 16 -6 23 -12 11 -10 13 -10 7 0 -5 8 -1 12 11 12 11 0 25
-6 32 -12 7 -7 12 -8 11 -3 -4 21 0 29 11 18 6 -6 25 -7 50 -3z m1366 4 c-3
-3 -12 -4 -19 -1 -8 3 -5 6 6 6 11 1 17 -2 13 -5z m-1086 -21 c12 -16 12 -17
-2 -6 -9 7 -20 9 -24 5 -5 -4 -5 -1 -1 6 9 16 11 15 27 -5z m967 5 c-6 -18
-53 -24 -123 -17 -57 5 -56 6 30 8 62 2 82 5 65 11 l-25 8 28 1 c19 1 27 -3
25 -11z m-1821 -4 c-3 -3 -12 -4 -19 -1 -8 3 -5 6 6 6 11 1 17 -2 13 -5z m156
-1 c-7 -2 -21 -2 -30 0 -10 3 -4 5 12 5 17 0 24 -2 18 -5z m162 -13 c-3 -5
-12 -10 -18 -10 -7 0 -6 4 3 10 19 12 23 12 15 0z"/>
<path d="M2860 2788 c0 -11 12 -10 30 2 12 7 10 9 -8 7 -12 0 -22 -5 -22 -9z"/>
<path d="M2128 833 c6 -2 9 -10 6 -15 -4 -7 -2 -8 4 -4 7 4 12 2 12 -3 0 -6 5
-11 12 -11 6 0 3 9 -7 20 -10 11 -23 20 -29 19 -6 0 -6 -3 2 -6z"/>
<path d="M1943 793 c9 -2 23 -2 30 0 6 3 -1 5 -18 5 -16 0 -22 -2 -12 -5z"/>
<path d="M1063 1053 c9 -2 25 -2 35 0 9 3 1 5 -18 5 -19 0 -27 -2 -17 -5z"/>
<path d="M3618 1053 c7 -3 16 -2 19 1 4 3 -2 6 -13 5 -11 0 -14 -3 -6 -6z"/>
<path d="M3698 1053 c6 -2 18 -2 25 0 6 3 1 5 -13 5 -14 0 -19 -2 -12 -5z"/>
<path d="M914 1043 c4 -7 16 -18 26 -23 16 -9 18 -8 14 5 -4 9 -9 13 -12 11
-3 -3 -12 0 -20 7 -13 9 -14 9 -8 0z"/>
<path d="M3693 1033 c9 -2 23 -2 30 0 6 3 -1 5 -18 5 -16 0 -22 -2 -12 -5z"/>
<path d="M845 1020 c-3 -6 1 -7 9 -4 18 7 21 14 7 14 -6 0 -13 -4 -16 -10z"/>
<path d="M3958 1013 c7 -3 16 -2 19 1 4 3 -2 6 -13 5 -11 0 -14 -3 -6 -6z"/>
<path d="M802 990 c-17 -27 -15 -41 4 -33 11 4 12 8 4 13 -17 11 1 19 33 16
15 -2 30 1 33 6 10 16 -3 20 -25 8 -14 -7 -21 -7 -21 0 0 16 -14 12 -28 -10z"/>
<path d="M4016 992 c-3 -5 1 -9 9 -9 8 0 15 4 15 9 0 4 -4 8 -9 8 -6 0 -12 -4
-15 -8z"/>
<path d="M681 953 c7 -10 14 -20 16 -22 1 -2 1 6 0 18 -1 11 -8 21 -15 21 -12
0 -12 -3 -1 -17z"/>
<path d="M4158 963 c6 -2 18 -2 25 0 6 3 1 5 -13 5 -14 0 -19 -2 -12 -5z"/>
<path d="M1068 843 c7 -3 16 -2 19 1 4 3 -2 6 -13 5 -11 0 -14 -3 -6 -6z"/>
<path d="M1138 843 c12 -2 32 -2 45 0 12 2 2 4 -23 4 -25 0 -35 -2 -22 -4z"/>
<path d="M1216 822 c-3 -4 4 -9 15 -9 23 -2 25 3 4 10 -8 4 -16 3 -19 -1z"/>
<path d="M1268 813 c7 -3 16 -2 19 1 4 3 -2 6 -13 5 -11 0 -14 -3 -6 -6z"/>
<path d="M1318 813 c12 -2 30 -2 40 0 9 3 -1 5 -23 4 -22 0 -30 -2 -17 -4z"/>
<path d="M1428 793 c7 -3 16 -2 19 1 4 3 -2 6 -13 5 -11 0 -14 -3 -6 -6z"/>
<path d="M1478 793 c12 -2 32 -2 45 0 12 2 2 4 -23 4 -25 0 -35 -2 -22 -4z"/>
</g>
</svg>
